<?xml version="1.0" encoding="UTF-8"?>
<!DOCTYPE svg PUBLIC "-//W3C//DTD SVG 1.1//EN" "http://www.w3.org/Graphics/SVG/1.1/DTD/svg11.dtd">
<!-- Creator: CorelDRAW 2020 (64-Bit) -->
<svg xmlns="http://www.w3.org/2000/svg" xml:space="preserve" width="297mm" height="210mm" version="1.1" style="shape-rendering:geometricPrecision; text-rendering:geometricPrecision; image-rendering:optimizeQuality; fill-rule:evenodd; clip-rule:evenodd"
viewBox="0 0 29700 21000"
 xmlns:xlink="http://www.w3.org/1999/xlink"
 xmlns:xodm="http://www.corel.com/coreldraw/odm/2003">
 <defs>
  <style type="text/css">
   <![CDATA[
    .fil0 {fill:#2B2A29;fill-rule:nonzero}
   ]]>
  </style>
 </defs>
 <g id="Слой_x0020_1">
  <metadata id="CorelCorpID_0Corel-Layer"/>
  <path class="fil0" d="M1056.44 13524.49m2786.64 -1520c0,190.01 -9.03,352.87 -27.14,488.56 -27.13,135.73 -81.42,289.53 -180.96,452.39 -99.51,162.85 -262.36,307.63 -470.46,434.3 -217.15,135.69 -434.28,199.04 -660.48,199.04 -262.36,0 -506.65,-54.29 -723.8,-171.91 -226.18,-117.62 -389.03,-262.39 -488.57,-434.27 -99.53,-171.91 -162.85,-334.77 -189.99,-488.57 -27.16,-144.78 -45.24,-307.64 -45.24,-479.54l0 -3112.36c0,-171.9 18.08,-316.65 54.27,-452.38 27.16,-135.72 99.53,-280.47 208.1,-434.27 108.58,-153.83 262.39,-289.53 461.43,-407.14 189.99,-108.59 398.09,-162.86 615.24,-162.86 416.19,0 759.99,135.7 1040.46,407.14 271.44,280.47 407.14,624.27 407.14,1049.51l0 325.72 -850.47 0 0 -325.72c0,-171.9 -45.24,-307.63 -135.7,-425.24 -99.53,-108.56 -235.25,-162.86 -416.19,-162.86 -171.91,0 -298.58,54.3 -389.06,162.86 -99.51,117.61 -144.75,253.34 -144.75,425.24l0 3103.33c0,81.43 0,153.8 9.05,235.23 0,81.43 36.19,180.94 117.62,298.55 81.43,117.64 217.12,180.96 416.19,180.96 208.07,0 352.85,-54.29 416.17,-153.8 63.35,-108.59 99.54,-190.01 108.59,-235.23 9.03,-54.29 18.08,-126.67 18.08,-208.1l0 -307.63 850.47 0 0 199.05zm597.13 1520m280.47 -3863.31c126.67,-153.81 280.47,-280.48 452.38,-370.96 171.91,-81.43 352.88,-126.67 551.92,-126.67 226.18,0 425.22,36.19 597.13,117.62 171.91,81.43 325.71,226.2 479.52,425.25 153.8,199.04 226.2,461.41 226.2,778.09l0 1719.02c0,325.71 -72.4,588.1 -217.15,778.09 -144.75,199.05 -307.61,343.82 -488.57,443.33 -180.96,108.59 -361.9,153.83 -551.89,153.83 -262.39,0 -497.62,-63.35 -705.72,-199.04 -217.15,-126.67 -361.9,-271.45 -443.33,-434.3 -81.43,-153.81 -135.72,-289.53 -153.8,-398.09 -18.11,-99.54 -27.16,-217.15 -27.16,-343.82l0 -1719.02c0,-325.71 90.48,-597.16 280.47,-823.33zm1022.38 343.79c-135.7,0 -244.28,45.24 -325.71,135.72 -72.38,90.48 -117.62,208.1 -117.62,343.82l0 1728.07c0,135.72 36.19,253.34 117.62,352.87 72.37,99.51 180.96,153.81 325.71,153.81 190.02,0 307.63,-54.3 352.87,-162.86 54.27,-108.59 72.38,-235.23 72.38,-361.9l0 -1709.99c0,-135.72 -36.19,-244.28 -117.62,-343.82 -72.4,-90.48 -180.96,-135.72 -307.63,-135.72zm1737.13 3519.52m425.24 0l0 -3619.03 -425.24 0 0 -687.61 425.24 0 0 -597.16c0,-334.74 81.43,-588.08 253.34,-750.93 171.91,-162.86 325.71,-271.42 470.46,-316.66 144.78,-45.24 307.63,-63.35 479.52,-63.35l298.58 0 0 805.23 -316.66 0c-208.1,0 -316.66,108.59 -316.66,334.76l0 588.11 633.32 0 0 687.61 -633.32 0 0 3619.03 -868.58 0zm2126.19 0l0 -3619.03 -425.25 0 0 -687.61 425.25 0 0 -597.16c0,-334.74 81.43,-588.08 253.34,-750.93 171.88,-162.86 325.71,-271.42 470.46,-316.66 144.75,-45.24 307.6,-63.35 479.51,-63.35l298.58 0 0 805.23 -316.66 0c-208.09,0 -316.68,108.59 -316.68,334.76l0 588.11 633.34 0 0 687.61 -633.34 0 0 3619.03 -868.55 0zm1863.79 0m1275.72 -823.34c126.67,0 226.2,-36.19 307.63,-117.61 81.43,-81.43 126.64,-180.94 144.75,-307.61l859.52 0 0 99.51c0,135.72 -27.13,262.39 -81.43,398.09 -63.34,135.72 -180.96,298.57 -361.9,497.62 -180.96,208.1 -461.43,307.63 -850.46,307.63 -244.29,0 -470.49,-63.35 -678.59,-199.04 -208.1,-135.73 -352.85,-280.5 -434.27,-443.36 -81.43,-153.8 -126.67,-298.55 -144.75,-434.27 -27.16,-126.67 -36.22,-253.34 -36.22,-380.01l0 -1637.59c0,-352.87 126.67,-669.53 389.06,-931.9 253.34,-262.39 560.95,-389.06 913.79,-389.06 370.96,0 678.59,126.67 922.87,380.01 244.29,262.37 361.9,570 361.9,940.95l0 1194.26 -1728.1 0 0 642.4c0,90.46 45.25,171.88 135.73,253.31 90.48,81.43 180.96,126.67 280.47,126.67zm18.11 -2678.07c-117.62,0 -217.16,36.18 -307.64,117.61 -81.42,72.38 -126.67,217.15 -126.67,407.14l0 425.25 868.58 0 0 -425.25c0,-153.8 -36.19,-280.47 -99.53,-380 -72.38,-99.51 -180.94,-144.75 -334.74,-144.75zm1899.98 3501.41m1275.71 -823.34c126.67,0 226.21,-36.19 307.63,-117.61 81.43,-81.43 126.65,-180.94 144.75,-307.61l859.53 0 0 99.51c0,135.72 -27.14,262.39 -81.43,398.09 -63.35,135.72 -180.96,298.57 -361.9,497.62 -180.96,208.1 -461.44,307.63 -850.47,307.63 -244.29,0 -470.49,-63.35 -678.59,-199.04 -208.09,-135.73 -352.84,-280.5 -434.27,-443.36 -81.43,-153.8 -126.67,-298.55 -144.75,-434.27 -27.16,-126.67 -36.21,-253.34 -36.21,-380.01l0 -1637.59c0,-352.87 126.67,-669.53 389.06,-931.9 253.33,-262.39 560.94,-389.06 913.79,-389.06 370.95,0 678.58,126.67 922.87,380.01 244.28,262.37 361.9,570 361.9,940.95l0 1194.26 -1728.1 0 0 642.4c0,90.46 45.24,171.88 135.72,253.31 90.48,81.43 180.96,126.67 280.47,126.67zm18.11 -2678.07c-117.62,0 -217.15,36.18 -307.63,117.61 -81.43,72.38 -126.67,217.15 -126.67,407.14l0 425.25 868.57 0 0 -425.25c0,-153.8 -36.18,-280.47 -99.53,-380 -72.38,-99.51 -180.94,-144.75 -334.74,-144.75zm2062.84 3501.41m1420.49 -6043.79c171.88,0 352.85,36.21 524.76,117.64 171.88,81.43 361.9,217.12 551.89,407.14 189.99,199.04 289.52,497.59 289.52,904.74l0 461.43c0,461.43 -180.96,787.15 -542.86,986.19 361.9,208.1 542.86,542.84 542.86,1004.27l0 705.72c0,425.22 -135.72,769.04 -407.14,1049.52 -271.42,280.47 -624.29,416.19 -1049.51,416.19l-1330.01 0 0 -6052.84 1420.49 0zm506.65 1800.47l0 -370.95c0,-189.99 -54.3,-343.8 -162.86,-452.39 -99.51,-108.56 -244.28,-162.85 -425.22,-162.85l-479.54 0 0 1682.85 506.67 0c199.05,0 343.8,-63.32 425.23,-189.99 90.48,-126.66 135.72,-289.52 135.72,-506.67zm0 2786.66l0 -705.72c0,-189.99 -54.3,-343.79 -153.8,-461.43 -108.57,-108.56 -244.29,-162.86 -434.28,-162.86l-479.54 0 0 1936.2 488.57 0c171.91,0 316.68,-54.3 416.19,-171.91 108.56,-117.62 162.86,-262.37 162.86,-434.28zm1257.61 1456.66m0 9.05l1266.66 -6052.84 832.36 0 1348.09 6052.84 -922.84 0 -244.28 -1302.85 -1121.92 0 -235.23 1302.85 -922.84 0zm1302.85 -2108.08l814.28 0 -407.14 -2153.34 -407.14 2153.34zm2578.57 2099.03m0 9.05l0 -6052.84 1510.94 0c398.09,0 732.86,135.72 1004.27,416.19 271.42,280.47 407.15,615.24 407.15,1013.33l0 569.99c0,551.92 -235.24,977.14 -705.72,1275.72l913.81 2777.61 -913.81 0 -814.29 -2596.65 -542.83 0 0 2596.65 -859.52 0zm1918.08 -3546.65c54.27,-72.38 90.46,-144.78 117.62,-226.21 18.08,-90.45 27.13,-180.93 27.13,-280.47l0 -569.99c0,-189.99 -54.29,-334.74 -153.8,-452.39 -99.53,-117.61 -244.28,-171.88 -434.3,-171.88l-615.21 0 0 1890.93 606.18 0c180.94,0 334.74,-63.32 452.38,-189.99z"/>
 </g>
</svg>
